<?xml version="1.0" encoding="UTF-8"?>
<svg xmlns="http://www.w3.org/2000/svg" viewBox="0 0 7680 4320">
  <defs>
    <style>
      .cls-1 {
        stroke-width: 11.58px;
      }

      .cls-1, .cls-2, .cls-3, .cls-4, .cls-5, .cls-6, .cls-7, .cls-8, .cls-9, .cls-10, .cls-11, .cls-12, .cls-13, .cls-14, .cls-15, .cls-16, .cls-17, .cls-18, .cls-19, .cls-20, .cls-21, .cls-22, .cls-23, .cls-24, .cls-25, .cls-26, .cls-27, .cls-28, .cls-29, .cls-30, .cls-31, .cls-32, .cls-33, .cls-34, .cls-35, .cls-36, .cls-37, .cls-38, .cls-39, .cls-40, .cls-41, .cls-42 {
        fill: none;
        stroke: #231f20;
        stroke-miterlimit: 10;
      }

      .cls-2 {
        stroke-width: 51.06px;
      }

      .cls-3 {
        stroke-width: 58.95px;
      }

      .cls-4 {
        stroke-width: 8.95px;
      }

      .cls-5 {
        stroke-width: 35.27px;
      }

      .cls-6 {
        stroke-width: 6.32px;
      }

      .cls-7 {
        stroke-width: 33.95px;
      }

      .cls-43 {
        fill: #fff;
      }

      .cls-8 {
        stroke-width: 53.69px;
      }

      .cls-9 {
        stroke-width: 28.69px;
      }

      .cls-10 {
        stroke-width: 37.9px;
      }

      .cls-11 {
        stroke-width: 26.05px;
      }

      .cls-12 {
        stroke-width: 48.42px;
      }

      .cls-13 {
        stroke-width: 47.11px;
      }

      .cls-14 {
        stroke-width: 12.9px;
      }

      .cls-15 {
        stroke-width: 27.37px;
      }

      .cls-16 {
        stroke-width: 31.32px;
      }

      .cls-17 {
        stroke-width: 10.26px;
      }

      .cls-18 {
        stroke-width: 44.48px;
      }

      .cls-19 {
        stroke-width: 32.63px;
      }

      .cls-20 {
        stroke-width: 16.84px;
      }

      .cls-21 {
        stroke-width: 56.32px;
      }

      .cls-22 {
        stroke-width: 18.16px;
      }

      .cls-23 {
        stroke-width: 14.21px;
      }

      .cls-24 {
        stroke-width: 40.53px;
      }

      .cls-25 {
        stroke-width: 45.79px;
      }

      .cls-26 {
        stroke-width: 30px;
      }

      .cls-27 {
        stroke-width: 43.16px;
      }

      .cls-28 {
        stroke-width: 24.74px;
      }

      .cls-29 {
        stroke-width: 15.53px;
      }

      .cls-30 {
        stroke-width: 7.63px;
      }

      .cls-31 {
        stroke-width: 52.37px;
      }

      .cls-32 {
        stroke-width: 41.84px;
      }

      .cls-33 {
        stroke-width: 49.74px;
      }

      .cls-34 {
        stroke-width: 55px;
      }

      .cls-35 {
        stroke-width: 23.42px;
      }

      .cls-36 {
        stroke-width: 22.11px;
      }

      .cls-37 {
        stroke-width: 36.58px;
      }

      .cls-38 {
        stroke-width: 5px;
      }

      .cls-39 {
        stroke-width: 19.47px;
      }

      .cls-40 {
        stroke-width: 20.79px;
      }

      .cls-41 {
        stroke-width: 39.21px;
      }

      .cls-42 {
        stroke-width: 57.63px;
      }
    </style>
  </defs>
  <g id="Layer_2" data-name="Layer 2">
    <rect class="cls-43" width="7680" height="4320"/>
  </g>
  <g id="Layer_1" data-name="Layer 1">
    <g>
      <path class="cls-38" d="M358.89,1110c152.98-10.57,295.97-77.21,430.23-146.84,143.77-74.55,282.21-159.24,428.29-229.35,120.43-57.79,252.73-111.49,388.61-109.3,115.32,1.86,224.88,42.28,325.64,95.87,193.16,102.73,364.88,257.37,580.94,312.02,50.01,12.65,102.77,20.34,154.45,17.8,62.17-3.05,122.92-22.31,180.05-46.02,144.53-59.97,276.27-149.6,404.68-237.84,136.73-93.96,270.63-192.29,411.12-280.66,115.43-72.6,242.05-148.81,378.54-172.08,239.83-40.89,388.27,196.06,501.52,368.54,68.53,104.38,134.47,212.92,220.26,304.38,73.74,78.61,165.37,140.46,276.9,137.78,91.5-2.2,176.38-33.62,248.91-89.01,68.5-52.32,123.6-119.33,183.33-180.88,62.39-64.31,132.05-123.16,218.44-151.67,51.43-16.97,103.21-19.61,156.87-21.1,72.34-2,144.5-9.45,216.25-18.61,359.02-45.82,711.37-135.39,1071.31-174.8,75.98-8.32,152.23-13.95,228.7-13.01"/>
      <path class="cls-6" d="M357.98,1181.09c152.78-10.92,296.06-76.93,430.79-145.44,144.99-73.72,284.88-157.33,431.98-226.92,119.73-56.64,253.97-112.83,388.99-109.9,113.96,2.47,224.64,42.4,325.55,92.8,193.15,96.47,366.64,239.65,579.01,293.87,51.18,13.07,106.54,23.14,159.52,19.74,59.81-3.84,118.26-22.37,173.53-44.61,143.88-57.89,275.73-145.05,404.21-230.76,139.36-92.98,275.89-190.43,418.75-278.07,114.72-70.37,239.07-142.99,372.92-168.61,243.26-46.57,390.51,190.14,503.23,366.42,68.04,106.4,133.23,217.37,219.69,310.25,71.76,77.1,162.04,137.98,271.08,135.4,193.82-4.6,323.02-141.84,457.27-263.03,70.01-63.2,146.22-122.15,237.26-151.12,51.51-16.4,102.92-18.92,156.46-21.62,72.59-3.66,144.94-11.71,216.96-21.25,344.89-45.69,685.79-128.67,1033.62-150.74,75.05-4.76,150.24-5.97,225.25.11"/>
      <path class="cls-30" d="M357.28,1252.29c153.44-10.69,298-75.51,434.26-142.56,147.13-72.4,289.4-154.51,438.44-223.06,122.12-56.17,260.86-114.22,398.08-109.14,112.63,4.17,221.84,38.94,323.97,84.74,192.2,86.2,368.2,213.21,576.25,260.63,49.59,11.3,102.73,20.44,153.76,17.92,61.5-3.04,122.19-21.67,179.21-43.84,143.47-55.8,275.81-139.18,405.13-221.61,139.74-89.06,276.81-182.53,419.84-266.34,115.75-67.83,240.11-136.87,373.45-161.84,106.65-19.97,201.19,11.63,281.4,83.37,90.2,80.67,154.55,187.84,217.15,290.07,64.48,105.3,126.31,214.99,209.2,307.28,71.53,79.64,161.51,141.37,272.39,138.2,199.89-5.71,350.85-141.36,502.44-254.82,79.31-59.36,163.51-115.07,259.29-143.69,54.59-16.31,108.66-19.29,165.13-22.09,68.21-3.38,136.22-10.05,204.04-18,325.17-38.12,650.14-109.71,978.8-107.33,72.26.52,144.26,5.56,215.43,18.37"/>
      <path class="cls-4" d="M356.71,1323.55c156.87-10.19,305.57-75.03,445.86-141.6,149.14-70.77,293.9-150.68,445.02-217.29,122.85-54.15,258.43-107.55,394.95-105.85,112.34,1.4,223.24,30.66,327.73,70.13,192.31,72.64,371.7,181.41,575.91,219.69,49.82,9.34,102.04,16.41,152.83,14.24,61.14-2.61,121.5-19.64,178.71-40.42,145.17-52.73,280.04-132.89,411.92-212.19,139.68-83.99,277-172.17,419.84-250.79,116.32-64.02,240.77-128.82,373.01-151.48,107.92-18.49,201.92,13.02,281.33,87.73,85.8,80.71,146.19,186.3,204.83,287.2,61.57,105.95,120.16,216.12,199.7,310.06,69.76,82.39,158.64,146.42,270.57,144.16,212.97-4.3,391.23-136.93,565.57-243.46,91.71-56.04,187.38-108.88,292-136.34,56.51-14.83,112.62-18.51,170.74-20.26,67.16-2.03,134.21-7.01,201.12-13.03,294.66-26.51,593.58-79.2,890-50.13,70.58,6.92,140.25,19.66,208.06,40.58"/>
      <path class="cls-17" d="M356.19,1394.84c157.34-9.27,307.36-71.57,449.34-135.77,153.82-69.55,303.34-148.47,458.94-214.12,127.15-53.65,264.19-104.04,404.09-103.09,110.1.74,218.65,21.72,323.84,53.21,191.47,57.31,373.7,145.26,573.21,173.32,51.59,7.26,104.59,11.85,156.72,9.64,60.87-2.58,120.85-18.02,178.33-37.45,143.94-48.66,278.76-123.19,410.83-197.28,139.4-78.21,276.7-160.37,418.86-233.56,118.68-61.1,244.99-122.1,378.18-142.48,50.9-7.79,102.7-8.37,151.91,8.43,47.21,16.12,88.45,45.51,123.99,80.04,84.66,82.25,142.36,189.93,198.43,292.47,58.95,107.8,114.67,220.2,192.71,315.88,67.43,82.68,153.36,145.7,263.94,144.03,229.35-3.48,434.92-130.67,633.8-230.29,104.55-52.37,212.16-102.03,326.65-128.29,119.27-27.35,243.85-17.99,365.36-24.09,268.99-13.5,546.59-46.38,812.52,12.46,65.66,14.53,129.34,35.58,190.34,63.89"/>
      <path class="cls-1" d="M355.68,1466.12c160.38-8.47,314.14-69.98,459.9-133.09,155.56-67.35,307.26-143.51,464.46-207.1,131.53-53.21,269.62-100.21,412.95-101,107.88-.59,214.51,12.79,319.79,35.84,190.23,41.64,374.56,108.26,569.45,126.9,115.05,11.01,226.04,6.6,337.09-27.6,142.36-43.84,276.75-112.38,408.49-180.9,141.3-73.49,280.55-151.13,424.28-219.85,120.78-57.75,248.74-114.98,382.61-132.84,50.11-6.68,101.55-7.29,149.82,9.46,47.73,16.57,88.94,47.28,123.99,83.15,81.3,83.22,135.43,190.94,188.03,293.43,55.41,107.97,107.51,220.34,181.71,317.1,64.98,84.74,148.94,150.07,259.85,149.48,246.33-1.31,478.17-122.88,700.09-215.86,118.5-49.65,239.45-97.13,365.88-122.27,120.67-24,243.12-14.45,365.35-15.26,243.12-1.6,495.84-10.85,727.66,74.76,60.74,22.43,118.39,51.53,172.95,86.36"/>
      <path class="cls-14" d="M355.1,1537.38c162.93-7.81,319.79-68.5,468.85-130.42,156.83-65.15,310.1-138.79,468.4-200.44,135.03-52.58,274.67-97.67,420.74-99.77,107.56-1.55,214.15,5.82,320.58,21.46,188.59,27.73,374.08,73.99,565,84.55,112.6,6.22,223.38,3.94,332.67-26.4,145.42-40.37,283.46-106.03,418.85-171.62,142.64-69.11,283.43-142.27,428.42-206.41,120.4-53.26,247.45-105.72,379.29-121.07,49.34-5.74,100.3-6.54,147.73,10.07,46.65,16.33,86.74,46.77,120.56,82.27,80.2,84.18,131.81,193.43,181.89,296.98,53.74,111.1,103.74,227.06,177.84,326.57,63.04,84.66,144.81,147.37,254.07,146.92,123.3-.5,245.18-29.95,362.48-65.7,133.37-40.65,263.4-91.34,394.54-138.48,130.7-46.99,263.41-92.34,400.57-116.33,119.6-20.92,238.44-12.46,359.02-8.53,224.81,7.34,454.09,21.44,656.75,129.09,56.29,29.9,108.72,65.93,158.18,106.04"/>
      <path class="cls-23" d="M354.41,1608.57c162.41-7.41,319.34-65.96,468.79-125.77,162.97-65.21,322.3-139.37,486.71-201,135.15-50.66,274.26-93.69,419.62-95.95,105.95-1.65,211.42,1.99,316.98,11.41,189.07,16.85,376.78,46.38,566.79,51.7,111.44,3.12,221.02,2.02,329.58-26.18,143.75-37.34,281-98.37,415.82-159.69,144.28-65.62,286.79-135.3,433.1-196.39,122.21-51.03,250.42-100.81,383-115.49,50.44-5.59,102.35-6.35,150.54,11.5,45.7,16.93,84.65,47.63,117.34,83.27,77.67,84.67,126.61,193.72,174.14,296.96,51.1,110.99,98.32,226.6,169.44,326.74,61.19,86.16,142.08,151.49,251.87,151.33,125.93-.18,251.08-28.47,371.99-61.38,143.79-39.14,284.78-87.78,426.64-133.24,140.3-44.96,282.24-88.88,427.94-112.59,120.01-19.54,239.02-13.29,359.82-6.87,210.95,11.22,415.49,44.91,594.42,164.62,54.94,36.76,105.55,79.27,153.51,124.65"/>
      <path class="cls-29" d="M353.56,1679.69c161.64-7.61,318.17-64.91,467.47-123.24,163.69-63.95,323.9-136.64,488.76-197.65,136.07-50.36,279.12-97.11,425.63-97.88,106.7-.56,213.37,2.79,319.9,8.72,187.25,10.43,374.06,27.39,561.62,31.94,113.22,2.75,222.04,2.53,332.58-25.67,145.03-37,284.03-96.63,420.83-156.44,143.62-62.8,285.72-129.25,431.22-187.67,122.01-48.99,249.29-96.52,380.68-111.94,50.35-5.91,101.79-7.34,150.08,10.2,45.47,16.52,84.12,46.81,116.54,82.2,78.17,85.34,126.07,196.44,172.58,300.93,49.32,110.79,94.77,226.34,164.42,326.41,59.63,85.68,139.94,152.4,248.73,152.3,127.33-.11,254.72-29.46,377.35-61.07,148.52-38.28,294.71-84.97,441.61-128.93,146.12-43.72,293.63-87.1,444.48-111.25,118.35-18.95,237.79-16.6,357.21-12,97.71,3.77,196,12.55,290.41,39.29,100.46,28.46,192.44,77.98,275.43,140.94,53.85,40.86,103.58,86.72,151.29,134.54"/>
      <path class="cls-20" d="M353.21,1750.86c163.26-7.51,320.97-65.46,471.42-125.2,160.45-63.71,317.4-136.06,479.12-196.61,134.27-50.27,277.64-98.14,422.67-97.27,106.03.63,212.13,4.84,318.06,9.19,194.49,7.99,388.86,18.86,583.45,24.16,51.1,1.39,102.82,4.55,153.91,2.49,58.99-2.38,117.69-14.09,174.76-28.61,142.8-36.34,280.24-92.6,415.83-149.51,143.84-60.37,286.28-124.26,431.78-180.61,121.81-47.18,247.85-92.37,377.93-109.77,51.92-6.94,103.15-9.15,153.06,9.3,44.29,16.37,82.4,45.64,114.35,79.96,78.86,84.7,126.91,195.66,173.44,300.07,48.55,108.93,93.41,222.25,161.85,320.68,60.25,86.67,142.23,153.71,252.13,153.69,126.74-.02,253.36-29.3,375.26-61.37,148.93-39.19,295.31-87.36,442.49-132.51,141.9-43.54,285.17-86.33,431.88-110.44,117.48-19.31,236.96-18.35,355.52-10.89,100.02,6.29,199.84,20.83,295.43,51.7,101.8,32.88,196.29,83.96,283.55,145.46,52.46,36.97,102.25,77.48,150.69,119.54"/>
      <path class="cls-22" d="M352.65,1822.05c159.68-7.13,313.12-64.12,459.46-124.41,156.55-64.5,309.14-138.4,467.05-199.61,129.1-50.04,267.34-96.91,407.39-96.99,111.21-.06,222.57,3.97,333.76,5.84,211.46,3.54,422.93,6.68,634.39,10.19,50.46.84,101.47,3.92,151.9,2.08,61.24-2.24,122.4-14.07,181.85-28.36,136.75-32.89,269.2-82.57,400.16-133.29,140.24-54.31,279.26-111.85,420.79-162.76,122.44-44.04,248.48-85.75,378-102.61,51.04-6.64,101.18-9.47,150.58,7.55,46.23,15.93,86.03,45.66,119.24,81.07,77.03,82.14,124.24,189.64,169.81,291.12,78.76,175.36,173.15,459.91,406.92,461.9,126.73,1.07,253.82-29.72,375.17-63.28,145.12-40.14,287.45-89.61,430.65-135.97,140.51-45.49,282.62-90.33,428.57-114.86,116.49-19.58,235.46-18.94,352.83-7.47,215.16,21.03,411.23,98.88,592.67,214.68,53.69,34.27,105.82,70.87,157.24,108.45"/>
      <path class="cls-39" d="M351.76,1893.23c153.88-6.89,300.86-62.85,440.7-123.58,148.03-64.3,291.71-138.33,440.97-199.84,127.94-52.72,264.96-100.67,405.02-100.36,117.59.26,235.12,1.06,352.71-.32,232.55-2.71,465.08-8.74,697.65-9.07,54.74-.08,109.87,2.45,164.57.4,59.07-2.22,117.93-11.74,175.7-23.83,134.1-28.07,264.76-71.38,394.17-115.82,135.26-46.45,269.58-95.76,405.94-138.98,119.79-37.97,242.4-73.21,367.67-87.14,51.04-5.67,101.86-8.58,151.33,7.78,44.45,14.7,83.29,42.11,115.84,75.36,75.52,77.14,121.86,179.93,166.01,276.89,79.47,174.53,171.77,449.01,404.23,449.96,123.93.51,247.63-30.78,365.72-65.54,140.12-41.24,277.14-92.22,415.04-140.14,137.97-47.95,277.71-95.27,421.8-121.22,117.78-21.21,237.88-20.5,356.29-4.37,220.68,30.06,420.6,124.93,611.72,235.07,55.52,31.99,110.47,64.97,165.43,97.91"/>
      <path class="cls-40" d="M350.7,1964.39c149.45-6.83,290.94-63.44,425.04-125.9,140.22-65.31,275.65-140.64,417.47-202.56,119.6-52.23,247.15-97.47,379.11-98.7,127.64-1.18,255.07-3.09,382.65-8,258.65-9.94,517.12-25.72,775.93-31.24,114.94-2.45,228.3.07,342.16-18.86,130.44-21.68,258.35-57.15,385.22-93.87,245.47-71.06,494.21-161.47,750.55-182.67,50.61-4.18,102.17-6.92,151.28,8.34,44.1,13.7,82.82,39.75,115.4,72.14,74.36,73.92,119.77,173.57,163.02,267.5,78.69,170.88,168.35,424.22,394.06,425.03,122.36.44,244.53-32.71,360.23-69.52,136.79-43.52,270.08-97.18,404.43-147.51,130.23-48.78,262.25-96.58,398.94-123.86,119.39-23.82,240.34-23.18,360.18-2.57,229.39,39.44,434.51,151.58,638.55,257.79,57.74,30.06,115.73,59.59,174.47,87.65"/>
      <path class="cls-36" d="M349.61,2035.55c144.19-6.76,279.26-63.66,406.66-127.66,129.53-65.06,253.93-140.05,385.12-201.85,114.11-53.75,236.61-99.64,364.28-101.2,137.91-1.69,275.51-7.69,413.17-16.13,286.93-17.58,573.48-43.19,860.79-54.29,114.54-4.43,229.27-.83,343.25-14.69,126.28-15.35,250.91-42.56,374.76-71.08,238.13-54.82,478.75-124.72,724.04-137.01,49.92-2.5,102.07-5.04,150.61,8.94,43.46,12.52,82.12,37.09,114.59,68.26,71.65,68.78,115.68,162.75,157.2,251.4,78.91,168.51,166.12,407.21,388.3,406.25,120.63-.52,240.18-34.89,353.33-73.84,130.6-44.95,257.4-100.09,385.34-151.94,126.28-51.17,254.55-101.53,388.11-130.32,120.63-26,241.6-24.53,362.3.5,237.67,49.28,446.73,178.57,663.75,280.79,60.01,28.27,120.94,54.39,183.25,77.2"/>
      <path class="cls-35" d="M348.63,2106.72c137.12-6.54,264.03-61.83,383.38-125.98,121.86-65.49,237.73-141.68,361.12-204.39,111.28-56.56,230.18-102.09,356.47-103.64,145.35-1.77,290.53-12.1,435.39-23.56,311.43-24.64,622.27-59.06,934.3-75.63,116.55-6.19,233.47-2.05,349.8-11.24,120.35-9.51,239.81-28.41,358.77-48.58,233.27-39.57,468.09-90.82,705.47-95.86,49.56-1.05,101.88-3.42,150.16,9.5,41.48,11.1,78.9,33.01,110.65,61.71,72.3,65.33,116.13,157.52,157.25,244.1,78.54,165.37,163.92,386.52,380.81,384.25,117-1.22,232.18-35.61,341.15-75.56,127.02-46.57,249.72-103.98,373.63-158.04,122.64-53.5,247.42-106.07,378.16-136.38,119.76-27.77,238.9-25.91,358.46,2.17,249.91,58.69,464.55,208.08,698.6,306.82,60.34,25.45,121.95,47.25,185.3,63.92"/>
      <path class="cls-28" d="M347.85,2177.9c269.38-12.79,483.44-210.84,710.25-333.23,105.48-56.92,218.82-101.33,340.07-103.38,152.09-2.57,303.81-14.98,455.23-28.84,333.63-30.54,666.47-72.82,1000.92-93.7,117.96-7.36,235.65-3.5,353.57-9.03,117.27-5.5,234.11-17.9,350.69-31.41,228.64-26.49,458.2-61.05,688.86-61.26,47.88-.05,98.06-2.19,144.79,9.68,41.07,10.44,78.4,31.26,110.19,59.13,69.81,61.2,112.63,148.3,152.3,230.53,78.49,162.66,162.23,374.02,375.33,371.96,115.9-1.12,229.4-35.97,336.58-77.47,123.99-48,243.17-107.39,363.71-163.25,119.46-55.36,241.36-109.85,369.83-140.78,120.53-29.02,239.91-26.15,359.58,5.97,255.27,68.51,469.85,233.28,715.17,326.39,62.21,23.61,125.95,41.84,191.64,52.74"/>
      <path class="cls-11" d="M347.37,2249.09c266.17-12.1,468.29-211.27,689.09-335.41,101.47-57.05,212.04-100.95,329.86-102.8,155.25-2.44,309.87-15.73,464.34-30.98,346.56-34.21,692.15-82.09,1039.71-105.44,118.7-7.97,237.03-5.47,355.82-9.08,115.37-3.5,230.57-11.46,345.64-20.17,226.17-17.13,452.6-39.08,679.61-39.98,48.42-.19,98.49-2.72,145.82,9.21,40.95,10.32,78.28,30.67,110.25,58.14,69.02,59.32,111.45,144.48,150.63,224.9,78.08,160.27,161.08,361.52,369.82,361.81,115.66.16,229.16-35.4,335.54-77.91,122.15-48.82,238.99-109.77,357.33-166.94,117.53-56.78,237.84-112.67,365.21-143.55,119.05-28.86,236.74-26.15,354.42,7.96,260.36,75.48,473.7,257.32,729.43,344.17,63.6,21.6,128.79,35.96,195.85,40.69"/>
      <path class="cls-15" d="M346.73,2320.27c266.04-11.85,467.54-210.84,688.06-335.03,101.36-57.08,212.13-101.29,329.91-103.15,155.33-2.46,309.76-15.07,464.3-30.62,347.25-34.93,693.45-84.64,1041.8-107.81,118.63-7.89,237.33-6.76,356.09-10.67,114.98-3.79,229.86-10.13,344.69-16.94,225.88-13.39,451.8-29.55,678.1-33.65,48.89-.89,98.27-3.63,146.03,8.91,40.86,10.73,78.19,31.09,110.3,58.42,68.66,58.44,111.63,141.92,151.28,221.25,79.18,158.42,163.88,356.07,369.99,359.24,115.8,1.78,230.54-34.3,336.71-77.32,120.58-48.86,235.5-110.42,351.98-168.06,116.17-57.5,235.31-113.83,361.85-144.44,118.81-28.74,236.9-26.49,354.09,8.59,262.79,78.67,477.34,265.77,737.83,350.2,63.54,20.6,128.62,33.48,195.45,35.77"/>
      <path class="cls-9" d="M345.81,2391.42c269.85-12.15,484.84-210.57,712.34-332.55,103.65-55.58,216.46-100.76,335.58-102.97,152.89-2.83,304.8-14.56,456.93-29.95,334.18-33.8,667.26-82.34,1002.53-104.6,118.64-7.88,237.42-7.38,356.22-10.67,115.69-3.21,231.33-8.01,346.95-13.08,227.56-9.98,455.13-21.67,682.89-25.8,48.97-.89,97.95-3.52,145.82,8.92,40.84,10.61,78.42,30.42,111.08,57.05,68.96,56.23,113.8,136.83,155.2,214.04,83.29,155.35,172.32,344.89,375.23,349.31,114.72,2.5,228.76-33.68,333.43-77.39,117.26-48.97,228.44-111.09,341.26-169.22,112.98-58.21,229.1-115.02,353.07-145.64,118.8-29.34,237.04-26.47,354.34,8.22,269.44,79.69,492.27,266.77,759.32,352.57,63.94,20.54,129.37,33.74,196.58,36.09"/>
      <path class="cls-26" d="M345.21,2462.61c137.83-5.89,265.86-61.05,386.13-124.89,123.33-65.46,240.9-141.41,365.9-203.79,108.41-54.1,225.69-99.81,348.36-102.14,147.02-2.79,293.01-13.48,439.3-28.44,314.39-32.15,627.64-78.97,943.12-99.78,117.32-7.74,234.77-7.29,352.27-9.17,116.89-1.87,233.78-4.41,350.65-7.04,230.16-5.19,460.32-11.05,690.53-13.67,49.1-.56,98.29-3.15,146.41,8.52,41,9.94,79.15,28.58,112.77,54,69.69,52.7,117.15,129.28,160.99,203.39,89.73,151.68,184.33,328.2,384.25,332.42,236.54,4.99,452.81-140.06,652.14-248.82,108.21-59.04,219.77-116.5,339.8-147.34,118.89-30.54,237.34-26.21,354.95,7.9,279.33,81,513.88,268.58,790.75,356.07,65.2,20.6,131.87,34.19,200.31,36.7"/>
      <path class="cls-16" d="M344.79,2533.81c143.57-5.59,278.76-60.65,406.43-122.73,132.89-64.63,260.67-139.46,395-201.18,114.68-52.69,237.93-98.6,365.62-100.9,139.03-2.51,276.97-12.03,415.3-26.4,290.38-30.16,579.57-74.94,871.04-93.96,232.75-15.19,467.85-6.83,700.98-6.39,233.33.45,466.65,1.25,699.98,1.12,94.58-.05,181.75,2.44,262.54,57.8,70.65,48.41,121.18,120.24,167.94,190.6,48.21,72.54,93.8,148.82,156.75,209.9,65.3,63.36,147.4,99.86,238.86,101.28,230.53,3.58,433.91-140.19,624.39-251.64,102.45-59.94,208.5-118.17,323.77-149.35,118.96-32.17,237.77-25.82,355.74,7.59,291.24,82.48,539.54,270.9,828.27,360.24,67,20.73,135.43,34.76,205.62,37.49"/>
      <path class="cls-19" d="M344.41,2605.02c150.08-5.19,293.08-59.98,428.75-120.39,143.13-63.73,281.69-137.4,426.06-198.39,121.54-51.34,251.36-97.27,384.73-99.49,130.2-2.17,259.24-10.44,388.77-24.16,264.66-28.03,528.05-70.64,793.79-87.75,231.88-14.93,466.25-1.97,698.3,4.3,236.7,6.39,473.39,14.16,710.17,16.93,94.59,1.11,183.04,1.59,266.31,52.61,71.67,43.92,125.41,110.68,175.33,176.97,51.13,67.9,99.92,139.35,164.51,195.48,68.71,59.72,152.16,92.05,243.38,92.77,224.36,1.78,413.72-140.25,594.77-254.69,96.29-60.86,196.47-119.91,306.73-151.47,118.91-34.03,238.31-25.4,356.56,7.29,303.93,84.02,566.65,273.41,868.01,364.67,68.99,20.89,139.37,35.37,211.52,38.35"/>
      <path class="cls-7" d="M343.97,2676.22c156.41-4.8,306.89-59.3,450.19-118.14,153.1-62.86,302.11-135.39,456.29-195.68,128.08-50.08,264.17-95.98,403.07-98.16,121.78-1.91,242.36-8.9,363.51-22.03,239.7-25.98,478.05-66.46,718.85-81.75,231.2-14.68,464.87,2.78,695.88,14.45,239.93,12.11,479.86,26.64,720.06,32.13,94.71,2.16,184.35.95,269.85,47.74,72.6,39.73,129.41,101.55,182.47,163.83,53.99,63.38,105.91,130.08,172.02,181.55,71.89,55.96,156.55,84.62,247.64,84.72,218.79.23,394.69-140.06,566.59-257.58,90.38-61.79,184.85-121.48,290.43-153.51,118.63-35.99,238.99-25.01,357.27,6.98,316.14,85.49,592.6,275.79,906.12,368.91,70.83,21.04,143.04,35.94,217,39.16"/>
      <path class="cls-5" d="M343.39,2747.4c161.62-4.54,318.27-58.86,467.81-116.22,161.89-62.11,320.08-133.57,482.9-193.29,133.39-48.92,274.61-94.87,418.03-97.12,115.03-1.81,228.83-7.64,343.25-20.34,218.03-24.19,434.56-62.82,653.69-76.57,231.04-14.49,464.32,6.43,694.77,22.65,242.68,17.08,485.38,37.65,728.61,45.07,94.86,2.89,185.29.73,272.52,43.94,73.34,36.32,132.78,93.8,188.64,152.47,56.53,59.37,111.19,121.85,178.56,169.4,74.38,52.5,159.97,78.63,250.94,78.45,214.57-.43,379.12-139.5,543.14-259.93,85.28-62.62,174.87-123.01,276.59-155.28,118.33-37.54,239.53-24.79,357.78,6.64,326.61,86.79,614.82,277.72,938.73,372.53,72.2,21.13,145.76,36.41,221.06,39.81"/>
      <path class="cls-37" d="M342.61,2818.57c164.74-4.51,325.29-58.9,478.68-114.93,168.56-61.56,333.72-132.12,503.1-191.49,136.6-47.88,280.92-94.08,426.97-96.64,111.17-1.95,221.13-6.87,331.7-19.4,202.12-22.91,402.59-60.11,605.82-72.81,231.76-14.48,465.19,7.91,696.02,27.51,244.6,20.77,489.28,46.2,734.75,54.13,94.97,3.07,185.45,1.15,273.66,41.95,73.76,34.12,135.14,88.32,193.14,144.19,58.46,56.31,115.23,115.54,183.41,160.36,75.79,49.83,161.89,75.1,252.56,75.28,212.27.43,369.41-138.35,527.69-261.32,81.59-63.39,167.79-124.27,266.97-156.56,118.05-38.44,239.88-24.78,358.02,6.27,334.04,87.79,630.73,278.89,961.99,375.09,72.76,21.13,146.87,36.69,222.7,40.19"/>
      <path class="cls-10" d="M341.68,2889.7c165.09-4.91,326.49-59.49,480.66-114.53,171.5-61.23,339.82-131.11,512.05-190.35,137.15-47.17,281.91-93.7,428.21-96.96,111.2-2.48,221.24-6.78,331.86-19.45,194.61-22.29,387.42-58.86,583.15-71.16,233.39-14.67,467.49,6.62,699.8,27.98,245.59,22.58,491.4,51,738.11,57.75,94.64,2.59,183.68,2.66,271.68,42.58,73.91,33.54,136.59,85.89,196.2,140.03,60.02,54.51,118.49,111.73,187.24,155.4,75.58,48.01,161.58,75.01,251.32,76.32,210.41,3.07,368.73-138.74,524.39-260.67,80.86-63.34,166.35-123.92,264.85-156.32,118.39-38.93,239.61-25.38,358.22,5.71,335.39,87.93,634.2,277.72,966.73,374.32,72.86,21.17,147.05,36.91,222.97,40.75"/>
      <path class="cls-41" d="M341.27,2960.81c163.67-5.36,322.95-58.05,475.66-113.29,166.01-60.05,328.7-129,495.43-187.11,136.13-47.44,279.22-92.49,424.51-96.5,110.85-3.06,220.49-6.57,330.79-19.4,189.59-22.06,377.22-58.66,567.96-70.72,235.17-14.88,470.74,6.78,704.74,29.02,249.65,23.72,499.65,54.02,750.53,60.73,94.37,2.52,182.02,4.86,270.33,42.49,76.32,32.52,143.39,82.16,207.96,133.47,135.4,107.62,272.86,219.12,454.72,222.97,207.17,4.38,381.06-137.56,541.98-248.85,86.22-59.63,176.18-116.82,276.83-148.7,119.65-37.9,238.19-26.04,358.12,5.08,324.36,84.17,612.84,268.02,934.34,360.86,72.85,21.04,146.98,36.37,222.78,40.83"/>
      <path class="cls-24" d="M340.57,3031.98c158.69-5.01,312.49-55.28,460.17-109.99,157.18-58.23,310.87-125.55,468.78-181.88,131.85-47.04,270.28-90.15,411.32-94.17,108.69-3.1,216.16-6.19,324.28-19.16,181.24-21.75,360.33-58.32,542.77-70.05,238.74-15.35,477.92,8.21,715.34,31.81,257.27,25.58,514.98,58.42,773.62,65.94,49.47,1.44,98.9-.15,148.04,6.76,43.8,6.16,86.74,17.36,128.22,32.67,81.29,29.99,155.54,75.4,227.86,122.48,149.44,97.29,302.23,201.1,487.4,205.21,210.64,4.68,401.32-126.07,576.33-226.2,94.61-54.13,192.07-105.97,297.62-135.29,120.12-33.37,237.16-25.21,357.16,5.14,306.24,77.44,577.37,252.52,880.74,338.62,71.03,20.16,143.27,34.38,217.07,38.62"/>
      <path class="cls-32" d="M339.72,3103.19c151.37-4.18,297.4-51.59,437.67-105.3,146.13-55.96,288.55-121.22,435.4-175.33,125.42-46.22,257.13-87.02,391.79-90.59,105.34-2.8,209.45-5.69,314.17-18.8,170.71-21.37,338.99-57.9,510.97-69.23,243.46-16.05,487.75,10.5,729.67,35.75,267.28,27.9,535.05,63.67,803.87,72.62,98.5,3.28,191.73,5.79,287,34.42,88.2,26.5,171.38,66.74,253.16,108.55,167.51,85.64,338.03,177.95,531.04,181.49,219.91,4.03,426.98-108.46,621.68-196.49,104.75-47.36,211.66-92.71,324.19-118.07,119.71-26.98,236.68-23.22,355.73,5.69,283.43,68.82,532.63,233.16,813.22,310.62,68.02,18.78,137.17,31.38,207.7,34.9"/>
      <path class="cls-27" d="M338.81,3174.4c288.2-6.35,547.92-167.37,810.3-268.03,117.88-45.22,241.84-83.45,369.04-86.38,101.39-2.33,201.58-5.1,302.29-18.37,159.12-20.97,315.46-57.45,475.94-68.35,248.72-16.89,498.94,13.25,745.88,40.24,278.51,30.44,557.54,69.33,837.74,80.01,101.92,3.88,200.13,5.06,300.09,28.49,96.28,22.57,189.17,57.19,281.09,93.18,186.94,73.21,376.01,152.55,580.08,154.84,233.05,2.61,455.62-88.6,672.27-163.42,228.6-78.95,465.48-148.16,707.69-92.48,258.35,59.39,483.46,211.91,739.02,279.86,64.43,17.13,129.92,27.89,196.58,30.45"/>
      <path class="cls-18" d="M337.93,3245.6c269.38-4.33,504.7-157.91,747.47-255.42,110.29-44.3,226.48-79.85,346.22-82.15,97.45-1.87,193.8-4.48,290.5-17.95,147.61-20.57,291.99-57.04,441.08-67.5,253.92-17.81,510.22,16.02,762.12,44.67,289.77,32.96,580.09,74.92,871.72,87.35,105.49,4.5,208.66,4.04,313.1,22.64,104.65,18.64,207.11,47.7,308.92,77.89,205.13,60.83,412.7,128.49,628.96,128.29,247.54-.23,484.53-69.36,722.34-130.7,236.44-60.99,491.19-125.21,735.36-72.67,233.44,50.24,434.72,190.72,665.43,249.35,60.9,15.48,122.77,24.39,185.59,26.06"/>
      <path class="cls-25" d="M337.15,3316.79c253.28-2.92,465.71-149.07,691.4-244.14,103.69-43.67,213.16-76.62,326.45-78.52,94.16-1.58,187.31-3.88,280.66-17.62,137.3-20.21,270.86-56.72,409.77-66.76,258.53-18.69,520.29,18.36,776.57,48.44,299.9,35.21,600.39,79.99,902.28,93.88,108.47,4.99,215.61,3.22,323.57,17.85,112.37,15.23,223.32,39.25,333.87,64.18,220.73,49.78,444.26,107.08,672.12,104.88,122.44-1.18,242.25-9.83,363.43-28.33,134.92-20.59,268.67-48.05,402.7-73.66,135.31-25.86,271.24-50.74,408.54-63.26,116.09-10.59,236.73-15.07,351.6,8.08,211.1,42.54,391.23,171.57,599.71,222.09,58.02,14.06,116.94,21.42,176.62,22.5"/>
      <path class="cls-13" d="M336.49,3387.95c242.06-2.48,435.52-141.79,648.92-235.54,99.12-43.54,203.96-74.2,312.86-76.11,92.14-1.61,183.36-3.39,274.65-17.45,129.32-19.92,254.34-56.53,385.4-66.23,262.05-19.39,527.83,19.8,787.47,50.97,307.7,36.94,616.08,84.09,925.91,98.84,110.04,5.24,219.3,3.24,329.09,15.1,118.43,12.79,235.95,32.83,353.2,53.54,232.16,41.02,467.17,90,704.01,87.66,125.05-1.24,248.31-7.65,372.65-22.06,142.15-16.47,283.6-38.38,425.21-58.85,142.19-20.55,284.77-40.47,428.16-50.52,115.88-8.12,236.33-13.63,351.05,8.24,193.84,36.94,357.86,156.34,549.12,201.1,56.38,13.19,113.7,19.53,171.55,20.56"/>
      <path class="cls-12" d="M335.98,3459.08c120.52-1.68,233.96-34.02,342.43-85.25,96.37-45.52,187.27-101.81,284.45-145.71,97.61-44.1,201.03-73.07,308.6-75.53,92.04-2.11,183.17-3.11,274.35-17.52,124.77-19.72,244.75-56.52,371.37-65.99,264.01-19.76,531.53,19.88,793.05,51.65,312,37.91,624.83,86.81,939.07,101.48,109.35,5.1,218.08,4.67,327.22,15.32,121.85,11.89,243.08,29.47,364.15,47.5,237.91,35.43,477.86,78.13,719.06,79.65,271.48,1.72,542.79-39.31,811.79-71.08,145.86-17.23,291.91-34.13,438.5-43.83,116.61-7.72,235.65-14.05,351.17,7.56,184.13,34.44,339.34,147.45,520.94,189.37,56.63,13.07,114.23,19.31,172.27,21.01"/>
      <path class="cls-33" d="M335.28,3530.14c120.26-3.88,234.16-35.54,343.66-84.24,97.25-43.25,189.82-96.37,287.75-138.15,98.52-42.04,202.13-70.49,309.55-74.99,92.13-3.86,183.27-4.43,274.75-17.84,128.79-18.87,253.87-53.07,384.16-62.72,262.25-19.42,527.99,19.54,787.95,50.16,308.15,36.3,616.81,82.12,926.95,97.63,109.87,5.49,219.28,6.34,328.93,16.82,121.15,11.58,241.77,28.06,362.27,44.97,237.22,33.29,476.29,73.45,716.35,76.81,124.24,1.74,249.18-9.78,372.74-21.36,144.8-13.57,289.26-30.54,433.79-46.64,144.65-16.11,289.44-31.91,434.69-41.56,117.31-7.79,234.84-13.57,351.09,7.84,186.1,34.27,348.49,138.38,532.47,179.44,56.51,12.61,113.87,19.31,171.68,21.84"/>
      <path class="cls-2" d="M334.59,3601.29c120.77-4.42,236.68-33.2,349.15-76.41,100.44-38.59,197.36-85.77,298.31-123.07,101.16-37.38,206.23-63.29,314.28-68.24,94.3-4.32,187.85-4.89,281.75-16.31,138.71-16.86,275.07-46.63,414.79-55.72,257.52-16.75,517.03,17.28,772.64,45.25,297.73,32.59,595.77,73.24,895.13,87.59,109.43,5.24,218.55,6.31,327.79,15.83,119.22,10.39,238.02,25.07,356.72,40.15,234.62,29.82,470.51,65.2,707.39,69.06,122.77,2,246.41-8.89,368.62-19.3,141.12-12.03,281.96-27.06,422.86-41.34,141.57-14.34,283.25-28.36,425.31-37,117.67-7.16,234.69-11.75,351.52,7.24,192.46,31.27,367.76,122.5,558.65,159.74,57.45,11.21,115.52,17.52,173.97,20.11"/>
      <path class="cls-31" d="M333.93,3672.49c122.38-3.38,241.47-27.51,358.21-63.47,104.79-32.27,207.17-71.88,312.29-103.09,104.96-31.16,212.62-52.88,322.26-56.85,98.36-3.55,196.22-4.26,294.35-13.33,152.35-14.08,303.38-38.54,456.34-46.34,250.59-12.77,501.43,13.67,750.58,37.89,283.01,27.51,566.23,61.82,850.49,73.43,107.95,4.41,215.69,5.08,323.52,13.04,116.62,8.61,232.93,20.91,349.17,33.58,230.61,25.15,462.12,54.78,694.38,57.73,256.62,3.27,514.54-27.88,769.81-50.2,137.32-12.01,274.72-23.68,412.4-30.75,117.78-6.04,235.04-9.28,352.29,5.9,202.02,26.16,392.94,102.06,593.94,133.19,59.2,9.17,118.79,14.49,178.65,16.59"/>
      <path class="cls-8" d="M333.28,3743.71c240.21-2.76,465.28-76.8,697.54-127.93,109.23-24.05,220.12-40.67,332.1-42.79,103.52-1.96,206.7-2.88,310.08-9.55,168.13-10.84,335.61-29.67,504.07-35.65,242.13-8.59,483.58,9.5,724.78,29.13,265.84,21.63,531.83,48.84,798.54,56.9,105.89,3.2,211.62,3.17,317.45,9.24,113.65,6.51,227.1,16.09,340.5,26.02,225.84,19.77,452.17,42.71,679.06,44.37,248.39,1.83,496.91-20.6,744.47-38.08,248.42-17.54,501.94-42.3,750.71-19.36,213.74,19.71,421.16,78.99,634.3,102.84,61.37,6.87,122.93,10.79,184.67,12.06"/>
      <path class="cls-34" d="M332.62,3814.9c245.68,1.47,483.82-52.24,725.54-87.92,113.41-16.74,227.69-28.02,342.42-28.05,108.91-.03,217.67-1.17,326.51-5.58,184.46-7.47,368.63-20.78,553.23-24.68,233.13-4.92,465.55,5.51,698.18,20.03,248.06,15.48,496.23,35.34,744.82,39.76,103.69,1.84,207.27,1.11,310.93,5.19,110.61,4.35,221.11,11.15,331.58,18.23,220.82,14.16,441.83,30.31,663.22,30.53,239.77.23,479.04-13.25,718.41-25.66,244.66-12.68,491.39-27.75,736.3-13.72,226.36,12.97,449.64,55.54,675.7,71.7,63.58,4.54,127.24,6.96,190.97,7.31"/>
      <path class="cls-21" d="M331.94,3886.07c251.94,4.87,501.05-29.48,751.49-50.84,230.79-19.68,461.71-11.69,693-16.7,199.72-4.33,399.34-12.6,599.11-14.5,224.75-2.14,449.14,2.29,673.7,11.64,231.51,9.64,463.08,22.37,694.83,23.78,209.81,1.28,418.96,4.09,628.65,12.65,216.11,8.82,432.27,18.7,648.62,17.74,231.71-1.04,462.98-6.73,694.58-14.3,240.68-7.86,482.06-15.19,722.86-8.37,238.47,6.75,475.76,33.8,714.11,42.8,65.48,2.47,130.99,3.54,196.52,3.13"/>
      <path class="cls-42" d="M331.24,3957.22c257.77,6.05,514.93-11.43,772.37-21.02,236.82-8.81,473.69-2.21,710.6-4.18,430.45-3.57,860.72-10.37,1291.15-1.17,218.01,4.66,436.04,11.1,654.11,10.71,206.29-.37,412.34.35,618.61,4.5,437.77,8.81,875.12,8.89,1312.93,2.18,237.22-3.64,474.59-5.75,711.83-3.77,248.6,2.07,496.92,15.78,745.5,19.19,66.76.91,133.51,1.05,200.27.31"/>
      <path class="cls-3" d="M330.54,4028.36c261.73,3.45,523.44-1.01,785.16-2.76,239.31-1.6,478.61,1.45,717.92,1.29,434.85-.29,869.71-1.97,1304.55.4,414.29,2.26,828.57.77,1242.85,2.85,431.84,2.16,863.68,2.39,1295.53,1.3,490.19-1.24,980.32,2.7,1470.5,3.51,67.05.11,134.11,0,201.16-.37"/>
    </g>
  </g>
</svg>